{
    "asset" : {
        "generator" : "Khronos glTF Blender I/O v1.2.75",
        "version" : "2.0"
    },
    "scene" : 0,
    "scenes" : [
        {
            "name" : "Scene",
            "nodes" : [
                0,
                1,
                3,
                6
            ]
        }
    ],
    "nodes" : [
        {
            "name" : "Light",
            "rotation" : [
                0.16907575726509094,
                0.7558803558349609,
                -0.27217137813568115,
                0.570947527885437
            ],
            "translation" : [
                4.076245307922363,
                115.90390014648438,
                -1.0054539442062378
            ]
        },
        {
            "name" : "Camera",
            "rotation" : [
                0.483536034822464,
                0.33687159419059753,
                -0.20870360732078552,
                0.7804827094078064
            ],
            "translation" : [
                7.358891487121582,
                4.958309173583984,
                6.925790786743164
            ]
        },
        {
            "extras" : {
                "asdProp" : 0.3799999952316284
            },
            "mesh" : 0,
            "name" : "Landscape_ice-colonly"
        },
        {
            "children" : [
                2
            ],
            "extras" : {
                "asdProp" : 0.49000000953674316
            },
            "mesh" : 1,
            "name" : "Landscape_plane",
            "scale" : [
                100,
                100,
                100
            ]
        },
        {
            "extras" : {
                "ant_landscape" : {
                    "ant_terrain_name" : "Landscape",
                    "at_cursor" : 1,
                    "smooth_mesh" : 0,
                    "tri_face" : 0,
                    "sphere_mesh" : 0,
                    "land_material" : "",
                    "water_material" : "Material",
                    "texture_block" : "",
                    "subdivision_x" : 128,
                    "subdivision_y" : 128,
                    "mesh_size_x" : 2,
                    "mesh_size_y" : 2,
                    "mesh_size" : 2,
                    "random_seed" : 8,
                    "noise_offset_x" : 0,
                    "noise_offset_y" : 0,
                    "noise_offset_z" : 0,
                    "noise_size_x" : 0.880000114440918,
                    "noise_size_y" : 0.880000114440918,
                    "noise_size_z" : 1,
                    "noise_size" : 1,
                    "noise_type" : 5,
                    "basis_type" : 3,
                    "vl_basis_type" : 0,
                    "distortion" : 1,
                    "hard_noise" : 1,
                    "noise_depth" : 8,
                    "amplitude" : 0.44999998807907104,
                    "frequency" : 1.75,
                    "dimension" : 1,
                    "lacunarity" : 2,
                    "offset" : 0.8999999761581421,
                    "gain" : 2,
                    "marble_bias" : 0,
                    "marble_sharp" : 0,
                    "marble_shape" : 0,
                    "height" : 0.25999999046325684,
                    "height_invert" : 0,
                    "height_offset" : -0.25,
                    "maximum" : 1,
                    "minimum" : -0.10000000149011612,
                    "edge_falloff" : 3,
                    "edge_level" : 0,
                    "falloff_x" : 3,
                    "falloff_y" : 3,
                    "strata_type" : 0,
                    "strata" : 5,
                    "water_plane" : 1,
                    "water_level" : -0.05999999865889549,
                    "vert_group" : "",
                    "remove_double" : 0,
                    "fx_mixfactor" : 0,
                    "fx_mix_mode" : 0,
                    "fx_type" : 0,
                    "fx_bias" : 0,
                    "fx_turb" : 0,
                    "fx_depth" : 0,
                    "fx_frequency" : 1.5,
                    "fx_amplitude" : 0.5,
                    "fx_size" : 1,
                    "fx_loc_x" : 0,
                    "fx_loc_y" : 0,
                    "fx_height" : 0.5,
                    "fx_offset" : 0,
                    "fx_invert" : 0
                },
                "asdProp" : 0.9700000286102295
            },
            "mesh" : 2,
            "name" : "Landscape_dirt-colonly"
        },
        {
            "extras" : {
                "ant_landscape" : {
                    "ant_terrain_name" : "Landscape",
                    "at_cursor" : 1,
                    "smooth_mesh" : 0,
                    "tri_face" : 0,
                    "sphere_mesh" : 0,
                    "land_material" : "",
                    "water_material" : "Material",
                    "texture_block" : "",
                    "subdivision_x" : 128,
                    "subdivision_y" : 128,
                    "mesh_size_x" : 2,
                    "mesh_size_y" : 2,
                    "mesh_size" : 2,
                    "random_seed" : 8,
                    "noise_offset_x" : 0,
                    "noise_offset_y" : 0,
                    "noise_offset_z" : 0,
                    "noise_size_x" : 0.880000114440918,
                    "noise_size_y" : 0.880000114440918,
                    "noise_size_z" : 1,
                    "noise_size" : 1,
                    "noise_type" : 5,
                    "basis_type" : 3,
                    "vl_basis_type" : 0,
                    "distortion" : 1,
                    "hard_noise" : 1,
                    "noise_depth" : 8,
                    "amplitude" : 0.44999998807907104,
                    "frequency" : 1.75,
                    "dimension" : 1,
                    "lacunarity" : 2,
                    "offset" : 0.8999999761581421,
                    "gain" : 2,
                    "marble_bias" : 0,
                    "marble_sharp" : 0,
                    "marble_shape" : 0,
                    "height" : 0.25999999046325684,
                    "height_invert" : 0,
                    "height_offset" : -0.25,
                    "maximum" : 1,
                    "minimum" : -0.10000000149011612,
                    "edge_falloff" : 3,
                    "edge_level" : 0,
                    "falloff_x" : 3,
                    "falloff_y" : 3,
                    "strata_type" : 0,
                    "strata" : 5,
                    "water_plane" : 1,
                    "water_level" : -0.05999999865889549,
                    "vert_group" : "",
                    "remove_double" : 0,
                    "fx_mixfactor" : 0,
                    "fx_mix_mode" : 0,
                    "fx_type" : 0,
                    "fx_bias" : 0,
                    "fx_turb" : 0,
                    "fx_depth" : 0,
                    "fx_frequency" : 1.5,
                    "fx_amplitude" : 0.5,
                    "fx_size" : 1,
                    "fx_loc_x" : 0,
                    "fx_loc_y" : 0,
                    "fx_height" : 0.5,
                    "fx_offset" : 0,
                    "fx_invert" : 0
                },
                "asdProp" : 0.8300001621246338
            },
            "mesh" : 3,
            "name" : "Landscape_grass-colonly"
        },
        {
            "children" : [
                4,
                5
            ],
            "extras" : {
                "ant_landscape" : {
                    "ant_terrain_name" : "Landscape",
                    "at_cursor" : 1,
                    "smooth_mesh" : 0,
                    "tri_face" : 0,
                    "sphere_mesh" : 0,
                    "land_material" : "",
                    "water_material" : "Material",
                    "texture_block" : "",
                    "subdivision_x" : 128,
                    "subdivision_y" : 128,
                    "mesh_size_x" : 2,
                    "mesh_size_y" : 2,
                    "mesh_size" : 2,
                    "random_seed" : 8,
                    "noise_offset_x" : 0,
                    "noise_offset_y" : 0,
                    "noise_offset_z" : 0,
                    "noise_size_x" : 0.880000114440918,
                    "noise_size_y" : 0.880000114440918,
                    "noise_size_z" : 1,
                    "noise_size" : 1,
                    "noise_type" : 5,
                    "basis_type" : 3,
                    "vl_basis_type" : 0,
                    "distortion" : 1,
                    "hard_noise" : 1,
                    "noise_depth" : 8,
                    "amplitude" : 0.44999998807907104,
                    "frequency" : 1.75,
                    "dimension" : 1,
                    "lacunarity" : 2,
                    "offset" : 0.8999999761581421,
                    "gain" : 2,
                    "marble_bias" : 0,
                    "marble_sharp" : 0,
                    "marble_shape" : 0,
                    "height" : 0.25999999046325684,
                    "height_invert" : 0,
                    "height_offset" : -0.25,
                    "maximum" : 1,
                    "minimum" : -0.10000000149011612,
                    "edge_falloff" : 3,
                    "edge_level" : 0,
                    "falloff_x" : 3,
                    "falloff_y" : 3,
                    "strata_type" : 0,
                    "strata" : 5,
                    "water_plane" : 1,
                    "water_level" : -0.05999999865889549,
                    "vert_group" : "",
                    "remove_double" : 0,
                    "fx_mixfactor" : 0,
                    "fx_mix_mode" : 0,
                    "fx_type" : 0,
                    "fx_bias" : 0,
                    "fx_turb" : 0,
                    "fx_depth" : 0,
                    "fx_frequency" : 1.5,
                    "fx_amplitude" : 0.5,
                    "fx_size" : 1,
                    "fx_loc_x" : 0,
                    "fx_loc_y" : 0,
                    "fx_height" : 0.5,
                    "fx_offset" : 0,
                    "fx_invert" : 0
                },
                "asdProp" : 0.9900000095367432
            },
            "mesh" : 4,
            "name" : "Landscape",
            "scale" : [
                100,
                100,
                100
            ]
        }
    ],
    "materials" : [
        {
            "doubleSided" : true,
            "emissiveFactor" : [
                0,
                0,
                0
            ],
            "extras" : {
                "propAsd" : 0.3400000035762787
            },
            "name" : "IceMaterial",
            "pbrMetallicRoughness" : {
                "baseColorFactor" : [
                    0.4984499514102936,
                    0.832470715045929,
                    1,
                    1
                ],
                "metallicFactor" : 0,
                "roughnessFactor" : 0.4000000059604645
            }
        },
        {
            "doubleSided" : true,
            "emissiveFactor" : [
                0,
                0,
                0
            ],
            "extras" : {
                "propAsd" : 0.9900000095367432
            },
            "name" : "DirtMaterial",
            "pbrMetallicRoughness" : {
                "baseColorFactor" : [
                    0.09083813428878784,
                    0.03407002240419388,
                    0.008918906562030315,
                    1
                ],
                "metallicFactor" : 0,
                "roughnessFactor" : 0.5
            }
        },
        {
            "emissiveFactor" : [
                0,
                0,
                0
            ],
            "extras" : {
                "propAsd" : 0.6700000166893005
            },
            "name" : "GrassMaterial",
            "pbrMetallicRoughness" : {
                "baseColorFactor" : [
                    0,
                    0.36723774671554565,
                    0.0028592925518751144,
                    1
                ],
                "metallicFactor" : 0,
                "roughnessFactor" : 0.5
            }
        },
        {
            "doubleSided" : true,
            "emissiveFactor" : [
                0,
                0,
                0
            ],
            "name" : "PatchyGrassMaterial",
            "pbrMetallicRoughness" : {
                "baseColorFactor" : [
                    0.25534409284591675,
                    0.281009316444397,
                    0,
                    1
                ],
                "metallicFactor" : 0,
                "roughnessFactor" : 0.5
            }
        }
    ],
    "meshes" : [
        {
            "name" : "Landscape_plane.001",
            "primitives" : [
                {
                    "attributes" : {
                        "POSITION" : 0,
                        "NORMAL" : 1
                    },
                    "indices" : 2
                }
            ]
        },
        {
            "name" : "Landscape_plane",
            "primitives" : [
                {
                    "attributes" : {
                        "POSITION" : 3,
                        "NORMAL" : 4
                    },
                    "indices" : 2,
                    "material" : 0
                }
            ]
        },
        {
            "name" : "Landscape.003",
            "primitives" : [
                {
                    "attributes" : {
                        "POSITION" : 5,
                        "NORMAL" : 6
                    },
                    "indices" : 7
                }
            ]
        },
        {
            "name" : "Landscape",
            "primitives" : [
                {
                    "attributes" : {
                        "POSITION" : 8,
                        "NORMAL" : 9
                    },
                    "indices" : 10
                }
            ]
        },
        {
            "name" : "Landscape.002",
            "primitives" : [
                {
                    "attributes" : {
                        "POSITION" : 11,
                        "NORMAL" : 12
                    },
                    "indices" : 13,
                    "material" : 1
                },
                {
                    "attributes" : {
                        "POSITION" : 14,
                        "NORMAL" : 15
                    },
                    "indices" : 16,
                    "material" : 2
                },
                {
                    "attributes" : {
                        "POSITION" : 17,
                        "NORMAL" : 18
                    },
                    "indices" : 19,
                    "material" : 3
                }
            ]
        }
    ],
    "accessors" : [
        {
            "bufferView" : 0,
            "componentType" : 5126,
            "count" : 4,
            "max" : [
                1,
                -0.05999999865889549,
                1
            ],
            "min" : [
                -1,
                -0.05999999865889549,
                -1
            ],
            "type" : "VEC3"
        },
        {
            "bufferView" : 1,
            "componentType" : 5126,
            "count" : 4,
            "type" : "VEC3"
        },
        {
            "bufferView" : 2,
            "componentType" : 5123,
            "count" : 6,
            "type" : "SCALAR"
        },
        {
            "bufferView" : 3,
            "componentType" : 5126,
            "count" : 4,
            "max" : [
                1,
                -0.05999999865889549,
                1
            ],
            "min" : [
                -1,
                -0.05999999865889549,
                -1
            ],
            "type" : "VEC3"
        },
        {
            "bufferView" : 4,
            "componentType" : 5126,
            "count" : 4,
            "type" : "VEC3"
        },
        {
            "bufferView" : 5,
            "componentType" : 5126,
            "count" : 42399,
            "max" : [
                1,
                0.031005721539258957,
                1
            ],
            "min" : [
                -1,
                -0.10000000149011612,
                -1
            ],
            "type" : "VEC3"
        },
        {
            "bufferView" : 6,
            "componentType" : 5126,
            "count" : 42399,
            "type" : "VEC3"
        },
        {
            "bufferView" : 7,
            "componentType" : 5123,
            "count" : 80844,
            "type" : "SCALAR"
        },
        {
            "bufferView" : 8,
            "componentType" : 5126,
            "count" : 9438,
            "max" : [
                0.05511811003088951,
                0.010488391853868961,
                0.023622047156095505
            ],
            "min" : [
                -1,
                -0.08280766010284424,
                -1
            ],
            "type" : "VEC3"
        },
        {
            "bufferView" : 9,
            "componentType" : 5126,
            "count" : 9438,
            "type" : "VEC3"
        },
        {
            "bufferView" : 10,
            "componentType" : 5123,
            "count" : 15930,
            "type" : "SCALAR"
        },
        {
            "bufferView" : 11,
            "componentType" : 5126,
            "count" : 41707,
            "max" : [
                1,
                0.031005721539258957,
                1
            ],
            "min" : [
                -1,
                -0.10000000149011612,
                -1
            ],
            "type" : "VEC3"
        },
        {
            "bufferView" : 12,
            "componentType" : 5126,
            "count" : 41707,
            "type" : "VEC3"
        },
        {
            "bufferView" : 13,
            "componentType" : 5123,
            "count" : 79806,
            "type" : "SCALAR"
        },
        {
            "bufferView" : 14,
            "componentType" : 5126,
            "count" : 8734,
            "max" : [
                -0.023622047156095505,
                0.0013506857212632895,
                -0.023622047156095505
            ],
            "min" : [
                -1,
                -0.08280766010284424,
                -1
            ],
            "type" : "VEC3"
        },
        {
            "bufferView" : 15,
            "componentType" : 5126,
            "count" : 8734,
            "type" : "VEC3"
        },
        {
            "bufferView" : 16,
            "componentType" : 5123,
            "count" : 14874,
            "type" : "SCALAR"
        },
        {
            "bufferView" : 17,
            "componentType" : 5126,
            "count" : 1396,
            "max" : [
                0.08661417663097382,
                0.010488391853868961,
                0.07086614519357681
            ],
            "min" : [
                -1,
                -0.06814922392368317,
                -1
            ],
            "type" : "VEC3"
        },
        {
            "bufferView" : 18,
            "componentType" : 5126,
            "count" : 1396,
            "type" : "VEC3"
        },
        {
            "bufferView" : 19,
            "componentType" : 5123,
            "count" : 2094,
            "type" : "SCALAR"
        }
    ],
    "bufferViews" : [
        {
            "buffer" : 0,
            "byteLength" : 48,
            "byteOffset" : 0
        },
        {
            "buffer" : 0,
            "byteLength" : 48,
            "byteOffset" : 48
        },
        {
            "buffer" : 0,
            "byteLength" : 12,
            "byteOffset" : 96
        },
        {
            "buffer" : 0,
            "byteLength" : 48,
            "byteOffset" : 108
        },
        {
            "buffer" : 0,
            "byteLength" : 48,
            "byteOffset" : 156
        },
        {
            "buffer" : 0,
            "byteLength" : 508788,
            "byteOffset" : 204
        },
        {
            "buffer" : 0,
            "byteLength" : 508788,
            "byteOffset" : 508992
        },
        {
            "buffer" : 0,
            "byteLength" : 161688,
            "byteOffset" : 1017780
        },
        {
            "buffer" : 0,
            "byteLength" : 113256,
            "byteOffset" : 1179468
        },
        {
            "buffer" : 0,
            "byteLength" : 113256,
            "byteOffset" : 1292724
        },
        {
            "buffer" : 0,
            "byteLength" : 31860,
            "byteOffset" : 1405980
        },
        {
            "buffer" : 0,
            "byteLength" : 500484,
            "byteOffset" : 1437840
        },
        {
            "buffer" : 0,
            "byteLength" : 500484,
            "byteOffset" : 1938324
        },
        {
            "buffer" : 0,
            "byteLength" : 159612,
            "byteOffset" : 2438808
        },
        {
            "buffer" : 0,
            "byteLength" : 104808,
            "byteOffset" : 2598420
        },
        {
            "buffer" : 0,
            "byteLength" : 104808,
            "byteOffset" : 2703228
        },
        {
            "buffer" : 0,
            "byteLength" : 29748,
            "byteOffset" : 2808036
        },
        {
            "buffer" : 0,
            "byteLength" : 16752,
            "byteOffset" : 2837784
        },
        {
            "buffer" : 0,
            "byteLength" : 16752,
            "byteOffset" : 2854536
        },
        {
            "buffer" : 0,
            "byteLength" : 4188,
            "byteOffset" : 2871288
        }
    ],
    "buffers" : [
        {
            "byteLength" : 2875476,
            "uri" : "multimaterial_COLONLY.bin"
        }
    ]
}
